<svg viewBox="0 0 140 140" xmlns="http://www.w3.org/2000/svg"><g transform="matrix(5.833333333333333,0,0,5.833333333333333,0,0)"><path d="M3,10.5v12H9V17.25a3,3,0,0,1,6,0V22.5h6v-12" fill="none" stroke="#000000" stroke-linecap="round" stroke-linejoin="round" stroke-width="1.5"></path><path d="M0.75 22.5L23.25 22.5" fill="none" stroke="#000000" stroke-linecap="round" stroke-linejoin="round" stroke-width="1.5"></path><path d="M.908,8.329A1.5,1.5,0,0,0,2.25,10.5h19.5a1.5,1.5,0,0,0,1.342-2.171L20.25,4.5H3.75Z" fill="none" stroke="#000000" stroke-linecap="round" stroke-linejoin="round" stroke-width="1.5"></path><path d="M3.75,4.5V3a1.5,1.5,0,0,1,1.5-1.5h13.5A1.5,1.5,0,0,1,20.25,3V4.5" fill="none" stroke="#000000" stroke-linecap="round" stroke-linejoin="round" stroke-width="1.5"></path></g></svg>