<?xml version="1.0" encoding="utf-8"?>
<!-- Generator: Adobe Illustrator 23.0.1, SVG Export Plug-In . SVG Version: 6.00 Build 0)  -->
<svg version="1.1" id="Layer_1" xmlns="http://www.w3.org/2000/svg" xmlns:xlink="http://www.w3.org/1999/xlink" x="0px" y="0px"
	 viewBox="0 0 144 92" style="enable-background:new 0 0 144 92;" xml:space="preserve">
<style type="text/css">
	.st0{fill-rule:evenodd;clip-rule:evenodd;fill:#00739D;}
	.st1{filter:url(#Adobe_OpacityMaskFilter);}
	.st2{fill-rule:evenodd;clip-rule:evenodd;fill:#FFFFFF;}
	.st3{mask:url(#mask-2_1_);enable-background:new    ;}
	.st4{fill:#FFFFFF;}
</style>
<title>Group</title>
<desc>Created with Sketch.</desc>
<g id="Page-1">
	<g id="Group">
		<g id="Rectangle">
			<rect y="0" class="st0" width="144" height="92"/>
		</g>
		<defs>
			<filter id="Adobe_OpacityMaskFilter" filterUnits="userSpaceOnUse" x="59.8" y="25.4" width="24.3" height="44.4">
				<feColorMatrix  type="matrix" values="1 0 0 0 0  0 1 0 0 0  0 0 1 0 0  0 0 0 1 0"/>
			</filter>
		</defs>
		<mask maskUnits="userSpaceOnUse" x="59.8" y="25.4" width="24.3" height="44.4" id="mask-2_1_">
			<g class="st1">
				<rect id="path-1_1_" y="0" class="st2" width="144" height="92"/>
			</g>
		</mask>
		<g class="st3">
			<path class="st4" d="M67,54.2c-0.2-1.5-0.2-2.8,0.2-4c0.3-1.2,0.8-2.3,1.4-3.3c0.6-1,1.3-2,2-2.8c0.7-0.9,1.5-1.7,2.1-2.5
				c0.7-0.8,1.2-1.6,1.7-2.3c0.4-0.7,0.7-1.5,0.7-2.3c0-1.3-0.4-2.3-1.2-3c-0.8-0.7-1.8-1-3.1-1c-1.2,0-2.3,0.3-3.2,0.8
				c-0.9,0.6-1.8,1.3-2.7,2.1l-5.2-4.7c1.5-1.7,3.2-3.2,5.1-4.2c2-1.1,4.1-1.6,6.5-1.6c1.8,0,3.5,0.2,5,0.6c1.6,0.4,2.9,1.1,4,2
				c1.1,0.9,2,2,2.7,3.4s1,3,1,4.9c0,1.3-0.2,2.5-0.7,3.6c-0.5,1-1.1,2-1.8,2.9c-0.7,0.9-1.5,1.8-2.2,2.6c-0.8,0.8-1.5,1.7-2.2,2.6
				c-0.7,0.9-1.2,1.8-1.6,2.8c-0.4,1-0.5,2.1-0.4,3.4H67z M65.5,63.9c0-1.7,0.5-3.1,1.6-4.3c1.1-1.1,2.4-1.7,4-1.7
				c1.6,0,3,0.6,4.1,1.7c1.1,1.1,1.6,2.5,1.6,4.3c0,1.7-0.5,3.1-1.6,4.2s-2.4,1.7-4.1,1.7c-1.6,0-3-0.6-4-1.7
				C66,66.9,65.5,65.5,65.5,63.9z"/>
		</g>
	</g>
</g>
</svg>
